# xmcd
#
# Track frame offsets: 
#        150
#        14240
#        23102
#        41548
#        52147
#        68963
#        82477
#        97218
#        108326
#        123642
#        134590
#        147817
#        157398
#        172003
#
# Disc length: 2409 seconds
#
# Revision: 2
# Processed by: cddbd v1.5.2PL0 Copyright (c) Steve Scherf et al.
# Submitted via: ExactAudioCopy v0.99pb5
#
DISCID=e109670e
DTITLE=The Quebe Sisters Band - Texas Fiddlers
DYEAR=2003
DGENRE=Western Swing
TTITLE0=San Antonio Rose
TTITLE1=Grey Eagle
TTITLE2=One More Time
TTITLE3=Black and White Rag
TTITLE4=Just a Closer Walk
TTITLE5=Crafton Blues
TTITLE6=Red Wing
TTITLE7=Don't Let The Deal Go Down
TTITLE8=Mansions on the Hill
TTITLE9=Sally Johnson
TTITLE10=Home in San Antone
TTITLE11=Walk Along John
TTITLE12=Red River Valley
TTITLE13=Bonnie Kate's Reel
EXTD=
EXTT0=
EXTT1=
EXTT2=
EXTT3=
EXTT4=
EXTT5=
EXTT6=
EXTT7=
EXTT8=
EXTT9=
EXTT10=
EXTT11=
EXTT12=
EXTT13=
PLAYORDER=
